<?xml version="1.0" encoding="UTF-8"?>
<svg xmlns="http://www.w3.org/2000/svg" xmlns:xlink="http://www.w3.org/1999/xlink" width="762.57pt" height="510.92pt" viewBox="0 0 762.57 510.92" version="1.1">
<defs>
<clipPath id="clip1">
  <path d="M 16 0 L 211 0 L 211 510.921875 L 16 510.921875 Z M 16 0 "/>
</clipPath>
<clipPath id="clip2">
  <path d="M 70 0 L 265 0 L 265 510.921875 L 70 510.921875 Z M 70 0 "/>
</clipPath>
<clipPath id="clip3">
  <path d="M 124 0 L 319 0 L 319 510.921875 L 124 510.921875 Z M 124 0 "/>
</clipPath>
</defs>
<g id="surface1">
<path style=" stroke:none;fill-rule:evenodd;fill:rgb(1.599121%,40.79895%,21.998596%);fill-opacity:1;" d="M 16.109375 -0.00390625 L 746.457031 -0.00390625 C 755.320313 -0.00390625 762.570313 7.25 762.570313 16.105469 L 762.570313 494.816406 C 762.570313 503.675781 755.320313 510.921875 746.457031 510.921875 L 16.109375 510.921875 C 7.253906 510.921875 0 503.675781 0 494.816406 L 0 16.105469 C 0 7.25 7.25 -0.00390625 16.109375 -0.00390625 "/>
<path style=" stroke:none;fill-rule:nonzero;fill:rgb(100%,100%,100%);fill-opacity:1;" d="M 320.882813 409.597656 C 320.882813 403.574219 320.945313 387.484375 320.796875 385.503906 C 320.929688 361.558594 303.519531 344.671875 292.519531 345.984375 C 284.910156 346.644531 278.53125 349.75 275.109375 358.679688 C 271.933594 366.996094 274.769531 378.0625 285.324219 380.660156 C 296.609375 383.449219 303.199219 385.765625 307.96875 389.042969 C 313.808594 393.046875 318.578125 400.707031 318.707031 409.605469 "/>
<path style=" stroke:none;fill-rule:nonzero;fill:rgb(100%,100%,100%);fill-opacity:1;" d="M 325.386719 445.992188 C 305.488281 445.992188 285.039063 441.089844 264.621094 431.398438 L 264.121094 431.152344 L 263.882813 430.640625 C 254.714844 411.296875 249.871094 390.140625 249.871094 369.441406 C 249.871094 348.773438 254.515625 328.519531 263.6875 309.203125 L 263.9375 308.6875 L 264.449219 308.433594 C 283.339844 299.484375 303.660156 294.953125 324.867188 294.953125 C 344.621094 294.953125 365.722656 299.996094 385.871094 309.570313 L 386.386719 309.800781 L 386.625 310.324219 C 395.964844 330.023438 400.890625 351.175781 400.890625 371.53125 C 400.890625 391.808594 396.160156 412.082031 386.808594 431.769531 L 386.566406 432.285156 L 386.042969 432.523438 C 367.441406 441.332031 346.464844 445.992188 325.386719 445.992188 M 266.511719 428.746094 C 286.347656 438.078125 306.132813 442.789063 325.386719 442.789063 C 345.800781 442.789063 366.101563 438.328125 384.175781 429.867188 C 393.152344 410.789063 397.703125 391.15625 397.703125 371.53125 C 397.703125 351.828125 392.953125 331.332031 383.96875 312.214844 C 364.414063 303.019531 343.992188 298.144531 324.867188 298.144531 C 304.335938 298.144531 284.65625 302.5 266.339844 311.089844 C 257.546875 329.8125 253.070313 349.4375 253.070313 369.441406 C 253.070313 389.484375 257.71875 409.988281 266.511719 428.746094 "/>
<path style=" stroke:none;fill-rule:nonzero;fill:rgb(100%,100%,100%);fill-opacity:1;" d="M 316.164063 409.605469 C 316.203125 401.886719 311.894531 395.0625 306.269531 391.398438 C 301.273438 388.160156 294.570313 386.027344 283.753906 383.285156 C 280.414063 382.429688 276.917969 380.53125 275.832031 378.109375 C 272.96875 380.996094 272.449219 387.480469 272.953125 391.273438 C 273.539063 395.660156 278.664063 402.890625 286.386719 403.171875 C 291.097656 403.363281 297.058594 402.160156 299.917969 401.550781 C 304.847656 400.488281 312.648438 403.574219 313.890625 409.597656 "/>
<path style=" stroke:none;fill-rule:nonzero;fill:rgb(100%,100%,100%);fill-opacity:1;" d="M 324.867188 308.671875 C 311.777344 308.671875 300.472656 317.300781 300.515625 332.238281 C 300.554688 344.796875 310.65625 351.519531 314.261719 356.324219 C 319.707031 363.5625 322.65625 372.125 322.960938 385.234375 C 323.199219 395.664063 323.1875 405.964844 323.242188 409.617188 L 326.128906 409.617188 C 326.082031 405.796875 325.949219 394.863281 326.101563 384.910156 C 326.296875 371.800781 329.351563 363.5625 334.796875 356.324219 C 338.433594 351.519531 348.527344 344.796875 348.546875 332.238281 C 348.597656 317.300781 337.296875 308.671875 324.222656 308.671875 "/>
<path style=" stroke:none;fill-rule:nonzero;fill:rgb(100%,100%,100%);fill-opacity:1;" d="M 328.1875 409.597656 C 328.1875 403.574219 328.121094 387.484375 328.269531 385.503906 C 328.140625 361.558594 345.539063 344.671875 356.546875 345.984375 C 364.15625 346.644531 370.527344 349.75 373.960938 358.679688 C 377.132813 366.996094 374.277344 378.0625 363.738281 380.660156 C 352.449219 383.449219 345.867188 385.765625 341.085938 389.042969 C 335.25 393.046875 330.816406 400.707031 330.679688 409.605469 "/>
<path style=" stroke:none;fill-rule:nonzero;fill:rgb(100%,100%,100%);fill-opacity:1;" d="M 332.902344 409.605469 C 332.863281 401.886719 337.167969 395.0625 342.78125 391.398438 C 347.796875 388.160156 354.503906 386.027344 365.3125 383.285156 C 368.660156 382.429688 372.152344 380.53125 373.21875 378.109375 C 376.09375 380.996094 376.613281 387.480469 376.109375 391.273438 C 375.511719 395.660156 370.398438 402.890625 362.691406 403.171875 C 357.980469 403.363281 351.988281 402.160156 349.144531 401.550781 C 344.230469 400.488281 336.40625 403.574219 335.160156 409.597656 "/>
<path style=" stroke:none;fill-rule:nonzero;fill:rgb(100%,100%,100%);fill-opacity:1;" d="M 336.9375 434.515625 L 335.265625 422.296875 L 339.308594 421.683594 C 340.292969 421.546875 341.492188 421.71875 341.972656 422.335938 C 342.5 422.980469 342.664063 423.511719 342.765625 424.359375 C 342.917969 425.402344 342.613281 426.609375 341.4375 427.210938 L 341.4375 427.25 C 342.753906 427.25 343.546875 428.191406 343.777344 429.785156 C 343.8125 430.121094 343.910156 430.933594 343.8125 431.613281 C 343.542969 433.226563 342.582031 433.746094 340.957031 433.972656 Z M 339.542969 432.328125 C 340.019531 432.257813 340.507813 432.234375 340.886719 431.992188 C 341.46875 431.613281 341.417969 430.800781 341.335938 430.195313 C 341.132813 428.871094 340.789063 428.367188 339.378906 428.574219 L 338.496094 428.710938 L 339.054688 432.398438 Z M 338.695313 426.679688 C 339.230469 426.59375 339.957031 426.53125 340.257813 426.023438 C 340.417969 425.683594 340.621094 425.414063 340.484375 424.660156 C 340.320313 423.765625 340.023438 423.210938 338.890625 423.425781 L 337.832031 423.597656 L 338.246094 426.730469 "/>
<path style=" stroke:none;fill-rule:nonzero;fill:rgb(100%,100%,100%);fill-opacity:1;" d="M 354.453125 427.167969 C 354.484375 427.394531 354.519531 427.644531 354.535156 427.875 C 354.863281 430.101563 354.453125 431.949219 351.945313 432.457031 C 348.242188 433.167969 347.535156 430.867188 346.882813 427.644531 L 346.535156 425.902344 C 346.023438 422.820313 345.804688 420.488281 349.417969 419.769531 C 351.453125 419.398438 352.796875 420.207031 353.355469 422.234375 C 353.445313 422.535156 353.554688 422.835938 353.59375 423.140625 L 351.378906 423.597656 C 351.121094 422.835938 350.78125 421.472656 349.785156 421.589844 C 347.996094 421.804688 348.589844 424.03125 348.769531 424.960938 L 349.4375 428.304688 C 349.636719 429.320313 350.035156 430.933594 351.582031 430.625 C 352.839844 430.371094 352.292969 428.414063 352.179688 427.609375 "/>
<path style=" stroke:none;fill-rule:nonzero;fill:rgb(100%,100%,100%);fill-opacity:1;" d="M 358.007813 430.863281 L 357.242188 418.21875 L 360.21875 417.308594 L 366.460938 428.308594 L 364.113281 429.007813 L 362.636719 426.214844 L 360.035156 426.996094 L 360.371094 430.175781 Z M 359.816406 424.957031 L 361.695313 424.410156 L 359.199219 419.292969 "/>
<path style=" stroke:none;fill-rule:nonzero;fill:rgb(100%,100%,100%);fill-opacity:1;" d="M 284.488281 421.304688 C 285.421875 418.320313 286.253906 416.125 289.808594 417.101563 C 291.710938 417.632813 292.890625 418.472656 292.835938 420.679688 C 292.828125 421.171875 292.664063 421.671875 292.558594 422.160156 L 290.34375 421.546875 C 290.636719 420.328125 290.820313 419.359375 289.316406 418.898438 C 287.578125 418.417969 287.152344 420.527344 286.914063 421.4375 L 286.015625 424.753906 C 285.730469 425.734375 285.386719 427.363281 286.914063 427.785156 C 288.179688 428.125 288.945313 426.882813 289.402344 425.074219 L 287.855469 424.664063 L 288.390625 422.742188 L 292.027344 423.914063 L 290.300781 430.304688 L 288.628906 429.851563 L 289.003906 428.5 L 288.957031 428.5 C 288.183594 429.605469 287.246094 429.71875 286.421875 429.5625 C 282.78125 428.578125 283.160156 426.199219 284.027344 423.019531 "/>
<path style=" stroke:none;fill-rule:nonzero;fill:rgb(100%,100%,100%);fill-opacity:1;" d="M 298.035156 426.699219 L 296.941406 431.898438 L 294.472656 431.367188 L 297.101563 419.226563 L 301.308594 420.175781 C 303.769531 420.707031 304.515625 421.804688 304.167969 424.0625 C 303.96875 425.355469 303.328125 426.75 301.769531 426.636719 L 301.753906 426.617188 C 303.070313 427.078125 303.183594 427.742188 302.953125 428.890625 C 302.851563 429.382813 302.167969 432.347656 302.640625 432.828125 L 302.65625 433.191406 L 300.101563 432.523438 C 299.996094 431.703125 300.359375 430.222656 300.503906 429.40625 C 300.644531 428.679688 300.875 427.660156 300.140625 427.277344 C 299.566406 426.96875 299.351563 426.984375 298.699219 426.832031 Z M 298.457031 424.820313 L 300.117188 425.269531 C 301.128906 425.414063 301.6875 424.890625 301.886719 423.671875 C 302.066406 422.554688 301.835938 422.117188 300.929688 421.902344 L 299.148438 421.539063 "/>
<path style=" stroke:none;fill-rule:nonzero;fill:rgb(100%,100%,100%);fill-opacity:1;" d="M 313.863281 421.9375 L 316.300781 422.222656 L 315.25 430.757813 C 314.742188 433.460938 313.695313 434.644531 310.71875 434.273438 C 307.691406 433.890625 306.96875 432.511719 307.152344 429.785156 L 308.210938 421.257813 L 310.671875 421.539063 L 309.617188 429.875 C 309.503906 430.78125 309.296875 432.125 310.90625 432.285156 C 312.335938 432.394531 312.65625 431.445313 312.820313 430.269531 "/>
<path style=" stroke:none;fill-rule:nonzero;fill:rgb(100%,100%,100%);fill-opacity:1;" d="M 318.992188 434.742188 L 319.726563 422.539063 L 324.414063 422.742188 C 326.632813 422.851563 327.210938 424.660156 327.140625 426.386719 C 327.074219 427.4375 326.746094 428.609375 325.832031 429.242188 C 325.082031 429.785156 324.117188 429.914063 323.226563 429.867188 L 321.699219 429.785156 L 321.390625 434.898438 Z M 321.765625 427.921875 L 323.007813 427.992188 C 324.015625 428.03125 324.683594 427.632813 324.773438 426.148438 C 324.824219 424.726563 324.28125 424.484375 322.976563 424.425781 L 321.992188 424.394531 "/>
<path style=" stroke:none;fill-rule:nonzero;fill:rgb(100%,100%,100%);fill-opacity:1;" d="M 649.644531 320.464844 L 631.011719 354.285156 C 623.980469 348.574219 615.390625 344.371094 604.433594 344.371094 C 578.503906 344.371094 567.972656 363.699219 567.972656 377.3125 C 567.972656 387.421875 574.589844 402.332031 597.660156 402.332031 C 607.34375 402.332031 621.113281 395.59375 625.074219 392.527344 L 606.648438 431.765625 C 597.863281 433.519531 594.976563 434.605469 587.539063 434.832031 C 546.246094 436.066406 529.558594 410.699219 529.570313 384.777344 C 529.597656 350.507813 560.066406 308.835938 610.574219 308.835938 C 613.667969 308.835938 617.453125 309.90625 620.6875 311.089844 L 623.960938 306.910156 "/>
<path style=" stroke:none;fill-rule:nonzero;fill:rgb(100%,100%,100%);fill-opacity:1;" d="M 726.527344 307.96875 L 731.804688 430.886719 L 692.535156 430.886719 L 692.511719 409.808594 L 665.738281 409.808594 L 656.925781 430.886719 L 614.339844 430.886719 L 658.863281 343.113281 L 648.824219 343.046875 L 667.898438 307.96875 Z M 692.257813 345.570313 L 677.121094 381.324219 L 692.714844 381.324219 "/>
<path style=" stroke:none;fill-rule:nonzero;fill:rgb(100%,100%,100%);fill-opacity:1;" d="M 504.78125 307.96875 C 524.226563 308.078125 535.214844 318.632813 535.214844 333.878906 C 535.214844 347.9375 523.625 360.378906 510.90625 366.8125 C 524.003906 371.628906 525.136719 383.449219 525.136719 391.808594 C 525.136719 412.011719 504.867188 430.886719 478.515625 430.886719 L 421.050781 430.886719 L 443.464844 344.335938 L 434.257813 344.285156 L 453.082031 307.96875 C 453.082031 307.96875 488.96875 307.859375 504.78125 307.96875 M 485.703125 357.804688 C 489.726563 357.804688 496.828125 356.785156 498.601563 349.003906 C 500.546875 340.550781 493.882813 340.324219 490.6875 340.324219 L 479.265625 340.273438 L 475.277344 357.804688 Z M 469.550781 379.527344 L 464.289063 399.730469 L 477.742188 399.730469 C 483.035156 399.730469 490.246094 397.101563 492.015625 390.527344 C 493.761719 383.933594 488.71875 379.527344 483.449219 379.527344 "/>
<g clip-path="url(#clip1)" clip-rule="nonzero">
<path style=" stroke:none;fill-rule:nonzero;fill:rgb(34.098816%,52.49939%,38.398743%);fill-opacity:1;" d="M 70.339844 510.921875 L 16.109375 510.921875 L 156.199219 -0.00390625 L 210.429688 -0.00390625 L 70.339844 510.921875 "/>
</g>
<g clip-path="url(#clip2)" clip-rule="nonzero">
<path style=" stroke:none;fill-rule:nonzero;fill:rgb(58.399963%,68.199158%,59.199524%);fill-opacity:1;" d="M 124.574219 510.921875 L 70.339844 510.921875 L 210.429688 -0.00390625 L 264.664063 -0.00390625 L 124.574219 510.921875 "/>
</g>
<g clip-path="url(#clip3)" clip-rule="nonzero">
<path style=" stroke:none;fill-rule:nonzero;fill:rgb(87.098694%,89.7995%,87.098694%);fill-opacity:1;" d="M 178.804688 510.921875 L 124.574219 510.921875 L 264.664063 -0.00390625 L 318.894531 -0.00390625 L 178.804688 510.921875 "/>
</g>
<path style=" stroke:none;fill-rule:nonzero;fill:rgb(100%,100%,100%);fill-opacity:1;" d="M 333.046875 230.496094 L 343.011719 230.496094 C 350.289063 230.496094 355.390625 229.996094 358.316406 228.984375 C 362.140625 227.714844 365.726563 225.101563 369.074219 221.148438 C 372.425781 217.195313 375.320313 211.707031 377.765625 204.675781 C 380.210938 197.648438 381.433594 189.519531 381.433594 180.289063 C 381.433594 172.648438 380.429688 166.65625 378.425781 162.304688 C 376.425781 157.957031 373.742188 155.011719 370.375 153.472656 C 367.972656 152.410156 363.78125 151.882813 357.800781 151.882813 L 346.507813 151.882813 Z M 310.214844 249.277344 L 330.1875 132.625 L 355.808594 132.625 C 364.808594 132.625 370.902344 132.996094 374.097656 133.738281 C 379.472656 135.066406 384.167969 137.691406 388.191406 141.617188 C 392.207031 145.542969 395.390625 150.78125 397.730469 157.332031 C 400.074219 163.882813 401.246094 171.746094 401.246094 180.925781 C 401.246094 190.578125 400.050781 199.503906 397.664063 207.699219 C 395.277344 215.894531 391.921875 223.058594 387.597656 229.183594 C 383.273438 235.3125 378.804688 239.769531 374.191406 242.554688 C 369.574219 245.339844 364.746094 247.234375 359.710938 248.242188 C 356.417969 248.933594 351.167969 249.277344 343.953125 249.277344 L 310.214844 249.277344 "/>
<path style=" stroke:none;fill-rule:nonzero;fill:rgb(100%,100%,100%);fill-opacity:1;" d="M 406.496094 249.277344 L 426.46875 132.625 L 497.367188 132.625 L 494.027344 152.121094 L 442.832031 152.121094 L 438.269531 178.617188 L 487.820313 178.617188 L 484.476563 198.113281 L 434.910156 198.113281 L 429.453125 229.78125 L 484.476563 229.78125 L 481.214844 249.277344 L 406.496094 249.277344 "/>
<path style=" stroke:none;fill-rule:nonzero;fill:rgb(100%,100%,100%);fill-opacity:1;" d="M 527.351563 179.730469 L 542.398438 179.730469 C 548.976563 179.730469 553.699219 179.203125 556.566406 178.140625 C 559.429688 177.078125 561.6875 175.25 563.332031 172.648438 C 564.976563 170.050781 565.800781 167.078125 565.800781 163.738281 C 565.800781 161.03125 565.1875 158.738281 563.96875 156.855469 C 562.746094 154.972656 561.207031 153.710938 559.347656 153.074219 C 557.488281 152.4375 553.480469 152.121094 547.320313 152.121094 L 532.109375 152.121094 Z M 518.609375 230.496094 L 537.582031 230.496094 C 545.023438 230.496094 550.125 229.96875 552.890625 228.90625 C 555.652344 227.847656 557.964844 225.894531 559.824219 223.058594 C 561.6875 220.222656 562.617188 217.023438 562.617188 213.46875 C 562.617188 209.28125 561.394531 205.988281 558.957031 203.601563 C 556.515625 201.214844 552.667969 200.023438 547.414063 200.023438 L 523.855469 200.023438 Z M 495.777344 249.277344 L 515.75 132.625 L 548.53125 132.625 C 557.285156 132.625 563.519531 133.183594 567.230469 134.296875 C 573.015625 135.992188 577.46875 139.148438 580.601563 143.765625 C 583.730469 148.378906 585.296875 154.082031 585.296875 160.871094 C 585.296875 167.714844 583.785156 173.445313 580.757813 178.058594 C 577.734375 182.675781 573.199219 186.175781 567.152344 188.5625 C 571.875 190.15625 575.652344 193.019531 578.492188 197.15625 C 581.328125 201.296875 582.75 206.121094 582.75 211.640625 C 582.75 219.171875 581.039063 225.988281 577.617188 232.089844 C 574.195313 238.191406 569.738281 242.582031 564.25 245.257813 C 558.757813 247.9375 550.972656 249.277344 540.894531 249.277344 L 495.777344 249.277344 "/>
<path style=" stroke:none;fill-rule:nonzero;fill:rgb(100%,100%,100%);fill-opacity:1;" d="M 589.671875 249.277344 L 610.425781 132.625 L 630.0625 132.625 L 609.308594 249.277344 L 589.671875 249.277344 "/>
<path style=" stroke:none;fill-rule:nonzero;fill:rgb(100%,100%,100%);fill-opacity:1;" d="M 670.402344 249.277344 L 650.78125 249.277344 L 667.515625 152.121094 L 638.765625 152.121094 L 642.109375 132.625 L 718.101563 132.625 L 714.757813 152.121094 L 687.136719 152.121094 L 670.402344 249.277344 "/>
</g>
</svg>
