<svg xmlns="http://www.w3.org/2000/svg" viewBox="0 0 85.29 32.53"><defs><style>.cls-1,.cls-2{fill:#fff;}.cls-1{fill-rule:evenodd;}</style></defs><g id="Layer_2" data-name="Layer 2"><g id="Layer_1-2" data-name="Layer 1"><path class="cls-1" d="M1.29,22.56a13.89,13.89,0,0,1-1.23-4.8,16.27,16.27,0,0,1,32.22-4.31.71.71,0,0,1-.42.85c-4.2,2.41-8.36,4.86-12.57,7.24a5.91,5.91,0,0,1-6.53-.28,2.25,2.25,0,0,1-.3-.24.93.93,0,0,1-.08-.17L25.9,13a10,10,0,0,0-7.32-6.65A10.11,10.11,0,0,0,6.1,16.14a14.15,14.15,0,0,0,.37,2.8c.06.37.08.6-.3.81C4.56,20.65,3,21.58,1.29,22.56Z"/><path class="cls-1" d="M3.35,26.07c1.69-1,3.32-1.94,5-2.86a.7.7,0,0,1,.63.14,10.32,10.32,0,0,0,13,1.4c3.16-1.95,6.42-3.73,9.63-5.59l.69-.36A16.15,16.15,0,0,1,3.35,26.07Z"/><path class="cls-1" d="M10.26,17.38a6.16,6.16,0,0,1,3.18-6.53,6,6,0,0,1,6.71.82Z"/><path class="cls-2" d="M35.91,21.15c0-.87.74-1.3,2.26-1.3s2.27.43,2.27,1.3v.09c0,1.37,1.18,2.33,2.82,2.33s2.8-.84,2.8-2.3-1-2.51-4.26-3.53q-5.91-1.92-5.92-6.58a5.79,5.79,0,0,1,2-4.63A7.55,7.55,0,0,1,43,4.82,7.81,7.81,0,0,1,48.14,6.5a5.09,5.09,0,0,1,2,4v.56c0,.87-.74,1.31-2.26,1.31s-2.27-.44-2.27-1.31v-.15a2,2,0,0,0-.71-1.59A2.76,2.76,0,0,0,43,8.67a3,3,0,0,0-1.89.56,2,2,0,0,0-.65,1.55c0,1.34,1.15,2.46,4.13,3.48,4.06,1.4,6.08,3.29,6.08,6.73,0,3.88-2.73,6.43-7.36,6.43A7.7,7.7,0,0,1,38,25.62a5.46,5.46,0,0,1-2.05-4.19Z"/><path class="cls-2" d="M63.44,19.78h-6.2V26c0,.87-.75,1.31-2.27,1.31s-2.26-.44-2.26-1.31V12a6.6,6.6,0,0,1,2.17-5.18,8.54,8.54,0,0,1,10.89,0A6.63,6.63,0,0,1,68,12V26c0,.87-.75,1.31-2.27,1.31s-2.27-.44-2.27-1.31Zm-6.2-3.84h6.2V12.18c0-2.14-1.24-3.51-3.1-3.51s-3.1,1.37-3.1,3.51Z"/><path class="cls-2" d="M70.54,21.15c0-.87.75-1.3,2.27-1.3s2.26.43,2.26,1.3v.09c0,1.37,1.18,2.33,2.83,2.33s2.79-.84,2.79-2.3-1-2.51-4.25-3.53c-3.94-1.28-5.93-3.48-5.93-6.58a5.77,5.77,0,0,1,2-4.63,7.52,7.52,0,0,1,5.09-1.71A7.76,7.76,0,0,1,82.77,6.5a5.07,5.07,0,0,1,2,4v.56c0,.87-.75,1.31-2.27,1.31s-2.26-.44-2.26-1.31v-.15a2,2,0,0,0-.72-1.59,2.72,2.72,0,0,0-1.92-.65,2.92,2.92,0,0,0-1.89.56,1.93,1.93,0,0,0-.66,1.55c0,1.34,1.15,2.46,4.13,3.48,4.07,1.4,6.09,3.29,6.09,6.73,0,3.88-2.74,6.43-7.36,6.43a7.74,7.74,0,0,1-5.34-1.8,5.49,5.49,0,0,1-2-4.19Z"/></g></g></svg>