<svg xmlns="http://www.w3.org/2000/svg" xmlns:xlink="http://www.w3.org/1999/xlink" viewBox="0 0 115.07 43.88"><defs><style>.cls-1,.cls-2,.cls-3{fill-rule:evenodd;}.cls-1{fill:url(#linear-gradient);}.cls-2{fill:url(#linear-gradient-2);}.cls-3{fill:url(#linear-gradient-3);}.cls-4{fill:url(#linear-gradient-4);}.cls-5{fill:url(#linear-gradient-5);}.cls-6{fill:url(#linear-gradient-6);}</style><linearGradient id="linear-gradient" x1="97.84" y1="2048.8" x2="98.08" y2="2049.08" gradientTransform="matrix(110.67, 0, 0, -110.67, -10821.31, 226776.59)" gradientUnits="userSpaceOnUse"><stop offset="0" stop-color="#f5e004"/><stop offset="0.07" stop-color="#b8cc15"/><stop offset="0.22" stop-color="#3aa339"/><stop offset="0.29" stop-color="#079247"/><stop offset="0.52" stop-color="#0c7e3f"/><stop offset="0.8" stop-color="#106c38"/><stop offset="1" stop-color="#126635"/></linearGradient><linearGradient id="linear-gradient-2" x1="96.89" y1="2050.83" x2="97.11" y2="2051.09" gradientTransform="matrix(99, 0, 0, -99, -9577.66, 203068.65)" xlink:href="#linear-gradient"/><linearGradient id="linear-gradient-3" x1="79.8" y1="2080.52" x2="80.07" y2="2080.84" gradientTransform="matrix(34.12, 0, 0, -34.12, -2707.85, 71009.52)" xlink:href="#linear-gradient"/><linearGradient id="linear-gradient-4" x1="49.1" y1="32.8" x2="67.48" y2="10.9" gradientTransform="matrix(1, 0, 0, 1, 0, 0)" xlink:href="#linear-gradient"/><linearGradient id="linear-gradient-5" x1="71.39" y1="36.02" x2="91.79" y2="11.7" gradientTransform="matrix(1, 0, 0, 1, 0, 0)" xlink:href="#linear-gradient"/><linearGradient id="linear-gradient-6" x1="95.83" y1="32.8" x2="114.21" y2="10.9" gradientTransform="matrix(1, 0, 0, 1, 0, 0)" xlink:href="#linear-gradient"/></defs><g id="Layer_2" data-name="Layer 2"><g id="Layer_1-2" data-name="Layer 1"><path class="cls-1" d="M1.74,30.44A19,19,0,0,1,.08,24a21.95,21.95,0,0,1,43.47-5.82A1,1,0,0,1,43,19.3c-5.65,3.24-11.28,6.55-17,9.76a8,8,0,0,1-8.8-.37,2.6,2.6,0,0,1-.4-.33c-.05,0-.07-.12-.12-.22L34.94,17.59c-1.79-4.73-5-7.83-9.87-9A13.65,13.65,0,0,0,8.22,21.78a20.55,20.55,0,0,0,.51,3.78c.08.49.11.8-.41,1.09C6.15,27.86,4,29.12,1.74,30.44Z"/><path class="cls-2" d="M4.52,35.17C6.8,33.85,9,32.56,11.23,31.32a.91.91,0,0,1,.84.19,13.94,13.94,0,0,0,17.51,1.88c4.25-2.63,8.65-5,13-7.53.29-.17.6-.32.93-.5-.74,6.87-6.28,15.28-16,17.81A21.71,21.71,0,0,1,4.52,35.17Z"/><path class="cls-3" d="M13.84,23.44a8.32,8.32,0,0,1,4.3-8.81,8.08,8.08,0,0,1,9.05,1.11Z"/><path class="cls-4" d="M48.45,28.54c0-1.18,1-1.76,3-1.76s3.06.58,3.06,1.76v.12c0,1.84,1.59,3.14,3.81,3.14,2.39,0,3.77-1.13,3.77-3.1,0-2.17-1.38-3.39-5.74-4.77-5.32-1.72-8-4.69-8-8.88a7.8,7.8,0,0,1,2.73-6.24A10.15,10.15,0,0,1,58,6.51a10.53,10.53,0,0,1,7,2.26,6.86,6.86,0,0,1,2.72,5.4v.76c0,1.17-1,1.75-3.06,1.75s-3.06-.58-3.06-1.75v-.21a2.7,2.7,0,0,0-1-2.14A3.67,3.67,0,0,0,58,11.7a4,4,0,0,0-2.55.75,2.64,2.64,0,0,0-.88,2.1c0,1.8,1.55,3.31,5.57,4.69,5.49,1.88,8.21,4.44,8.21,9.09,0,5.23-3.69,8.66-9.93,8.66a10.42,10.42,0,0,1-7.2-2.42,7.4,7.4,0,0,1-2.76-5.66Z"/><path class="cls-5" d="M85.6,26.69H77.23v8.38c0,1.17-1,1.76-3.06,1.76s-3.06-.59-3.06-1.76V16.14a8.91,8.91,0,0,1,2.93-7,11.55,11.55,0,0,1,14.7,0,8.94,8.94,0,0,1,3,7V35.07c0,1.17-1,1.76-3,1.76s-3.06-.59-3.06-1.76ZM77.23,21.5H85.6V16.43c0-2.89-1.68-4.73-4.19-4.73s-4.18,1.84-4.18,4.73Z"/><path class="cls-6" d="M95.18,28.54c0-1.18,1-1.76,3-1.76s3.06.58,3.06,1.76v.12c0,1.84,1.59,3.14,3.81,3.14,2.39,0,3.77-1.13,3.77-3.1,0-2.17-1.38-3.39-5.74-4.77-5.31-1.72-8-4.69-8-8.88a7.79,7.79,0,0,1,2.72-6.24,10.15,10.15,0,0,1,6.86-2.3,10.51,10.51,0,0,1,7,2.26,6.86,6.86,0,0,1,2.72,5.4v.76c0,1.17-1,1.75-3.06,1.75s-3.06-.58-3.06-1.75v-.21a2.7,2.7,0,0,0-1-2.14,3.67,3.67,0,0,0-2.6-.88,4,4,0,0,0-2.55.75,2.64,2.64,0,0,0-.88,2.1c0,1.8,1.55,3.31,5.57,4.69,5.49,1.88,8.21,4.44,8.21,9.09,0,5.23-3.69,8.66-9.93,8.66a10.42,10.42,0,0,1-7.2-2.42,7.4,7.4,0,0,1-2.76-5.66Z"/></g></g></svg>